# xmcd
#
# Track frame offsets:
#	150
#	15956
#	27789
#	48177
#	60849
#	79597
#	98961
#	114061
#	136234
#	154448
#	167530
#	190200
#	205742
#
# Disc length: 2897 seconds
#
# Revision: 1
# Processed by: cddbd v1.4PL0 Copyright (c) Steve Scherf et al.
# Submitted via: audiograbber 1.80.04
#
DISCID=8f0b4f0d
DTITLE=Jenifer Jackson - Birds
DYEAR=2000
DGENRE=Folk-Rock
TTITLE0=The Fade
TTITLE1=Mercury, the Sun and Moon
TTITLE2=Endless Green
TTITLE3=The first Day of Winter
TTITLE4=After the Fall
TTITLE5=The War is done
TTITLE6=Survival
TTITLE7=Trouble Fire
TTITLE8=Naturally Blond
TTITLE9=What you said
TTITLE10=My impossible Love
TTITLE11=Lullaby
TTITLE12=Bonus Track: Mercurio, il sole e luna
EXTD=
EXTT0=
EXTT1=
EXTT2=
EXTT3=
EXTT4=
EXTT5=
EXTT6=
EXTT7=
EXTT8=
EXTT9=
EXTT10=
EXTT11=
EXTT12=
PLAYORDER=
